/* XPM */
static char * trash_full_xpm[] = {
"22 22 248 2",
"  	c None",
". 	c #0B56C4",
"+ 	c #0A55C3",
"@ 	c #0953C2",
"# 	c #0752C1",
"$ 	c #064FBF",
"% 	c #054EBE",
"& 	c #054CBD",
"* 	c #0B57C5",
"= 	c #0D5DCC",
"- 	c #1976E9",
"; 	c #2E8FFA",
"> 	c #43A6FF",
", 	c #52AFFF",
"' 	c #61B9FF",
") 	c #68BAFF",
"! 	c #5CA6F1",
"~ 	c #4084D9",
"{ 	c #1155C1",
"] 	c #227CE9",
"^ 	c #2894FF",
"/ 	c #2693FF",
"( 	c #3EA2FF",
"_ 	c #53AFFF",
": 	c #44637C",
"< 	c #497091",
"[ 	c #61B4FF",
"} 	c #6ABAFF",
"| 	c #81CBFF",
"1 	c #8BC9F9",
"2 	c #336FCB",
"3 	c #2D81E9",
"4 	c #2C96FF",
"5 	c #3E9EFF",
"6 	c #58AFFF",
"7 	c #487191",
"8 	c #CAD5BF",
"9 	c #C6D3C2",
"0 	c #46637C",
"a 	c #63B4FB",
"b 	c #73BDFA",
"c 	c #84C8FB",
"d 	c #94C7F6",
"e 	c #1452BD",
"f 	c #3A77D1",
"g 	c #8AC8FF",
"h 	c #3A9DFF",
"i 	c #4EA6FF",
"j 	c #43627C",
"k 	c #BED1C5",
"l 	c #C5D3C2",
"m 	c #C0D1C5",
"n 	c #47647A",
"o 	c #82C7FA",
"p 	c #92CBFA",
"q 	c #225EC2",
"r 	c #4981D5",
"s 	c #A6D7FF",
"t 	c #4AA4FF",
"u 	c #405F7C",
"v 	c #7D8173",
"w 	c #B0B49B",
"x 	c #C0D2C4",
"y 	c #4D687A",
"z 	c #A8D7FE",
"A 	c #205DC4",
"B 	c #3474CF",
"C 	c #FFFFFF",
"D 	c #96CEFF",
"E 	c #3F5F7C",
"F 	c #C9D3BF",
"G 	c #CDD6BD",
"H 	c #8B9588",
"I 	c #CED6BD",
"J 	c #686E67",
"K 	c #C6D4C1",
"L 	c #BEE5FF",
"M 	c #85B9F6",
"N 	c #0043BC",
"O 	c #2B6FCD",
"P 	c #E3FFFF",
"Q 	c #F4FEFF",
"R 	c #AFD9FF",
"S 	c #86C6FF",
"T 	c #71BEFF",
"U 	c #5BB2FF",
"V 	c #74BDFF",
"W 	c #8BC9FF",
"X 	c #C3E5FF",
"Y 	c #DAEFFF",
"Z 	c #5D9FEE",
"` 	c #0063E0",
" .	c #0042BB",
"..	c #2A6CCC",
"+.	c #D3FFFF",
"@.	c #C4F9FF",
"#.	c #F6FFFF",
"$.	c #FAFFFF",
"%.	c #ECFBFF",
"&.	c #D8EEFF",
"*.	c #A5CEFA",
"=.	c #418FEA",
"-.	c #0469E0",
";.	c #0067E0",
">.	c #0041BA",
",.	c #296BCB",
"'.	c #F1FFFF",
").	c #EDFFFF",
"!.	c #D8FAFF",
"~.	c #ADE9FF",
"{.	c #81C8FC",
"].	c #56A7F1",
"^.	c #2B87E9",
"/.	c #0A6DE1",
"(.	c #003FBA",
"_.	c #296AC9",
":.	c #D7FAFF",
"<.	c #ADE7FF",
"[.	c #81C7FC",
"}.	c #56A6F1",
"|.	c #2A86E7",
"1.	c #003EB9",
"2.	c #2868C8",
"3.	c #D6FAFF",
"4.	c #ACE7FF",
"5.	c #80C6FB",
"6.	c #55A5F1",
"7.	c #2A85E7",
"8.	c #0A6DE0",
"9.	c #003DB8",
"0.	c #2667C7",
"a.	c #ECFCFF",
"b.	c #D5F5FF",
"c.	c #ADE1FC",
"d.	c #84C2F1",
"e.	c #5CA3E6",
"f.	c #3384DB",
"g.	c #136FD8",
"h.	c #0669DD",
"i.	c #003CB7",
"j.	c #2566C7",
"k.	c #D6FFFF",
"l.	c #DAFFFF",
"m.	c #F4FFFF",
"n.	c #EDFCFF",
"o.	c #AEE1FB",
"p.	c #86C2F0",
"q.	c #5FA4E4",
"r.	c #3785D9",
"s.	c #1A70D0",
"t.	c #166CD0",
"u.	c #0E69D3",
"v.	c #0063DF",
"w.	c #0039B6",
"x.	c #2B68C7",
"y.	c #E6FFFF",
"z.	c #E0FFFF",
"A.	c #F5FFFF",
"B.	c #EEFEFF",
"C.	c #D3F4FF",
"D.	c #ADE0FC",
"E.	c #87C3F2",
"F.	c #61A6E9",
"G.	c #3A88DD",
"H.	c #1C71D3",
"I.	c #136AD0",
"J.	c #0E67D1",
"K.	c #0039B4",
"L.	c #3E74CC",
"M.	c #EBFFFF",
"N.	c #D9F9FF",
"O.	c #EDFBFF",
"P.	c #E6F6FF",
"Q.	c #D0F0FF",
"R.	c #ACDFFE",
"S.	c #88C4F5",
"T.	c #63A8EC",
"U.	c #3F8CE4",
"V.	c #267ADF",
"W.	c #2175DC",
"X.	c #166DD3",
"Y.	c #0F68D0",
"Z.	c #053DA8",
"`.	c #3E70C8",
" +	c #CDEBFA",
".+	c #ECFAFF",
"++	c #E9F8FF",
"@+	c #D1F2FF",
"#+	c #AEE1FF",
"$+	c #89C5F6",
"%+	c #65A9EE",
"&+	c #418FE5",
"*+	c #297DE1",
"=+	c #257AE1",
"-+	c #297BDC",
";+	c #6685A7",
">+	c #1C48A7",
",+	c #3365C1",
"'+	c #E7E7F0",
")+	c #FEFFFF",
"!+	c #F0FCFF",
"~+	c #D3F5FF",
"{+	c #AFE3FF",
"]+	c #8BC7F8",
"^+	c #67ACEF",
"/+	c #4290E7",
"(+	c #4B8FE0",
"_+	c #739FD2",
":+	c #A8B1BA",
"<+	c #E6E7E9",
"[+	c #3660BE",
"}+	c #003DB3",
"|+	c #BDC5DF",
"1+	c #E0E0EB",
"2+	c #F0F0F7",
"3+	c #EBF9FF",
"4+	c #DDEFFF",
"5+	c #F2F2F4",
"6+	c #E9EAEC",
"7+	c #F0F1F2",
"8+	c #E6EDFE",
"9+	c #0026A5",
"0+	c #003AB2",
"a+	c #2457BB",
"b+	c #B2BEDD",
"c+	c #E2E2EC",
"d+	c #E6E6F0",
"e+	c #ECECF4",
"f+	c #F6F6FA",
"g+	c #FAFAFE",
"h+	c #D5E0F7",
"i+	c #2451B8",
"j+	c #0037B0",
"k+	c #0036AF",
"l+	c #406AC1",
"m+	c #8CA3D7",
"n+	c #CDD5EB",
"o+	c #DDE4F6",
"p+	c #9CB1E1",
"q+	c #476DC4",
"r+	c #0033AD",
"s+	c #0030AC",
"t+	c #002FAA",
"u+	c #002DA9",
"v+	c #002CA8",
"w+	c #002AA7",
"x+	c #0029A6",
"y+	c #0028A5",
"                . + @ # $ % &               ",
"            * = - ; > , ' ) ! ~ {           ",
"          * ] ^ / ( _ : < [ } | 1 2         ",
"        * 3 4 ^ 5 6 7 8 9 0 a b c d e       ",
"        f g 4 h i j k l 9 m n b o p q       ",
"        r s 4 t u k k v w 9 x y o z A       ",
"        B C D E F G H I J m K y L M N       ",
"        O P C Q R S T U V W X Y Z `  .      ",
"        ..+.@.#.$.$.#.%.&.*.=.-.;.` >.      ",
"        ,.+.@.'.).!.~.{.].^./.-.;.` (.      ",
"        _.+.@.'.).:.<.[.}.|./.-.;.` 1.      ",
"        2.+.@.'.).3.4.5.6.7.8.-.;.` 9.      ",
"        0.+.@.'.a.b.c.d.e.f.g.h.;.` i.      ",
"        j.k.l.m.n.b.o.p.q.r.s.t.u.v.w.      ",
"        x.y.z.A.B.C.D.E.F.G.H.t.I.J.K.      ",
"        L.M.N.O.P.Q.R.S.T.U.V.W.X.Y.Z.      ",
"        `.C  +.+++@+#+$+%+&+*+=+-+;+>+      ",
"        ,+'+C )+!+~+{+]+^+/+(+_+:+<+[+      ",
"        }+|+1+2+C C m.3+4+5+6+7+C 8+9+      ",
"        0+a+b+c+d+e+2+f+g+C C C h+i+9+      ",
"          j+k+l+m+n+2+f+g+o+p+q+9+9+        ",
"              r+s+t+u+v+w+x+y+9+            "};
