#define omg_width 80
#define omg_height 16
static unsigned char omg_bits[] PROGMEM = {
   0x1f, 0x1f, 0x00, 0x00, 0x00, 0x00, 0x00, 0x00, 0x00, 0x00, 0x11, 0x11,
   0x00, 0x00, 0x00, 0x00, 0x00, 0x00, 0x00, 0x00, 0xf1, 0x91, 0xed, 0x98,
   0x16, 0x00, 0x00, 0x00, 0x00, 0x00, 0x01, 0x90, 0xaf, 0xa4, 0x1f, 0x00,
   0x00, 0x00, 0x00, 0x00, 0x19, 0x93, 0x6a, 0x24, 0x0f, 0x00, 0x00, 0x00,
   0x00, 0x00, 0x51, 0x92, 0xaa, 0x24, 0x09, 0x00, 0x00, 0x00, 0x00, 0x00,
   0x01, 0x90, 0xa8, 0x19, 0x09, 0x00, 0x00, 0x00, 0x00, 0x00, 0xff, 0x1f,
   0x00, 0x00, 0x00, 0x00, 0x00, 0x00, 0x00, 0x00, 0x00, 0x00, 0x00, 0x00,
   0x00, 0x00, 0x00, 0x00, 0x00, 0x00, 0x00, 0x00, 0x00, 0x00, 0x00, 0x00,
   0x00, 0x00, 0x00, 0x00, 0x00, 0x00, 0x00, 0x00, 0x00, 0x00, 0x00, 0x00,
   0x00, 0x00, 0x00, 0x00, 0x00, 0x00, 0x00, 0x00, 0x00, 0x00, 0x00, 0x00,
   0x00, 0x00, 0x00, 0x00, 0x00, 0x00, 0x00, 0x00, 0x00, 0x00, 0x00, 0x00,
   0x00, 0x00, 0x00, 0x00, 0x00, 0x00, 0x00, 0x00, 0x00, 0x00, 0x00, 0x00,
   0x00, 0x00, 0x00, 0x00, 0x00, 0x00, 0x00, 0x00, 0x00, 0x00, 0x00, 0x00,
   0x00, 0x00, 0x00, 0x00 };
