#define omg_width 80
#define omg_height 16
static unsigned char omg_bits[] = {
   0x22, 0x0a, 0x22, 0x00, 0x00, 0x00, 0x00, 0x00, 0x00, 0x00, 0x25, 0x0c,
   0x55, 0x00, 0x00, 0x00, 0x00, 0x00, 0x00, 0x00, 0x72, 0x8a, 0x88, 0x00,
   0x00, 0x00, 0x00, 0x00, 0x00, 0x00, 0x00, 0x00, 0x00, 0x00, 0x3e, 0x00,
   0x00, 0x00, 0x00, 0x00, 0x00, 0x90, 0x00, 0x80, 0x63, 0x40, 0x00, 0x00,
   0x03, 0x00, 0x00, 0x00, 0x00, 0xc0, 0x40, 0xe0, 0x0c, 0xc0, 0x00, 0x00,
   0x00, 0x00, 0x00, 0x40, 0x40, 0x90, 0x0c, 0x40, 0x00, 0x00, 0x00, 0x00,
   0x00, 0x20, 0x20, 0x88, 0x0b, 0x20, 0x1e, 0x1f, 0x00, 0x02, 0x00, 0x20,
   0x20, 0x04, 0x09, 0x10, 0xfe, 0x10, 0x00, 0x06, 0x18, 0x20, 0x10, 0x02,
   0x18, 0x10, 0x60, 0x10, 0x00, 0x1c, 0x0e, 0x20, 0x0c, 0x02, 0x10, 0x10,
   0x20, 0x10, 0x00, 0xf0, 0x03, 0xe0, 0x03, 0x01, 0x10, 0x10, 0x10, 0x30,
   0x00, 0x00, 0x00, 0x00, 0x00, 0x01, 0x30, 0xf0, 0x0f, 0x20, 0x00, 0x00,
   0x00, 0x00, 0x00, 0x00, 0x00, 0x00, 0x00, 0x00, 0x00, 0x00, 0x00, 0x00,
   0x00, 0x00, 0x00, 0x00, 0x00, 0x00, 0x00, 0x00, 0x00, 0x00, 0x00, 0x00,
   0x00, 0x00, 0x00, 0x00 };
